<svg xmlns="http://www.w3.org/2000/svg" width="36" height="36" fill="none"><path fill="#fff" fill-opacity=".78" d="M29.45 11.996c.019.262.019.523.019.784 0 7.988-6.08 17.192-17.19 17.192-3.423 0-6.603-.992-9.279-2.714.486.056.954.075 1.46.075 2.719.007 5.361-.903 7.501-2.581a6.054 6.054 0 0 1-5.65-4.19c.373.056.748.093 1.141.093.542 0 1.086-.075 1.591-.205A6.04 6.04 0 0 1 4.2 14.52v-.075c.805.449 1.74.73 2.73.767a6.034 6.034 0 0 1-2.695-5.031c0-1.122.299-2.151.822-3.048a17.186 17.186 0 0 0 12.46 6.322 6.866 6.866 0 0 1-.15-1.384 6.039 6.039 0 0 1 6.041-6.042c1.74 0 3.311.729 4.415 1.908a11.935 11.935 0 0 0 3.834-1.46A6.03 6.03 0 0 1 29 9.807a12.11 12.11 0 0 0 3.478-.936 12.968 12.968 0 0 1-3.029 3.125Z"/></svg>