<svg xmlns="http://www.w3.org/2000/svg" width="589" height="568" fill="none"><path fill="url(#a)" d="M335.43 255.344c-7.226-4.166-12.411-4.251-15.556-.34-3.23 3.911-4.76 10.542-4.76 19.808v50.157c0 9.521-.85 17.427-2.636 23.718-1.785 6.546-4.76 11.137-8.84 13.857-3.995 2.806-9.436 3.486-16.321 2.211-6.715-1.191-15.131-4.761-25.162-10.542l-4.76-2.805v-39.531l6.036 3.486c7.225 4.165 11.985 4.675 14.365 1.7 2.551-2.976 3.826-9.096 3.826-18.363v-44.206c0-11.562 1.105-20.658 3.4-27.289 2.21-6.716 6.715-10.967 13.431-12.837-6.716-9.606-11.221-19.128-13.431-28.394-2.21-9.266-3.315-19.638-3.315-31.199v-44.207c0-9.266-1.275-16.917-3.826-22.783-2.38-5.78-7.225-10.796-14.365-14.962l-6.036-3.485V29.807l4.76 2.805c10.031 5.781 18.447 11.987 25.162 18.533 6.885 6.63 12.326 13.602 16.321 21.083a81.761 81.761 0 0 1 8.84 24.058c1.786 8.332 2.636 17.258 2.636 26.779v50.157c0 9.267 1.615 17.768 4.76 25.334 3.23 7.566 8.415 13.517 15.556 17.597l-.085 39.191Z" opacity=".4"/><path fill="url(#b)" d="M153.349 110.058c7.225 4.166 12.41 4.251 15.556.34 3.23-3.91 4.76-10.541 4.76-19.807V40.433c0-9.521.85-17.427 2.635-23.718 1.785-6.546 4.675-11.137 8.671-13.942 4.165-2.72 9.605-3.4 16.32-2.21 6.886 1.275 15.386 4.845 25.417 10.711l4.76 2.806v39.53l-6.035-3.485c-7.226-4.166-12.071-4.76-14.621-1.785-2.38 3.06-3.57 9.18-3.57 18.532v44.206c0 11.477-1.105 20.658-3.4 27.289-2.211 6.716-6.716 10.967-13.431 12.837 6.715 9.607 11.22 19.128 13.431 28.394 2.21 9.267 3.315 19.638 3.315 31.2v44.206c0 9.266 1.19 16.832 3.57 22.698 2.55 5.866 7.395 10.967 14.621 15.047l6.035 3.486v39.53l-4.76-2.805c-10.031-5.781-18.531-12.072-25.417-18.618-6.715-6.546-12.155-13.516-16.321-21.083-3.995-7.396-6.885-15.387-8.585-23.888-1.785-8.331-2.635-17.257-2.635-26.779v-50.157c0-9.266-1.615-17.767-4.76-25.334-3.231-7.566-8.416-13.516-15.556-17.597v-39.446Z" opacity=".4"/><path fill="url(#c)" d="m359.996 10.934 179.446 103.63-.085 430.246-179.446-103.544.085-430.332Z" opacity=".15"/><path fill="#587298" d="m326.249 67.297 142.809 82.377v39.531l-142.809-82.377v-39.53Z"/><path fill="url(#d)" d="m383.373 250.329 135.328 78.126v119.612l-135.328-78.126V250.329Z" opacity=".2"/><path fill="#fff" d="m382.012 158.6 137.368 79.316v13.517l-137.368-79.316V158.6ZM382.012 185.804l118.752 68.52v13.517l-118.752-68.52v-13.517ZM382.012 212.668l100.816 58.148v13.517l-100.816-58.148v-13.517Z" opacity=".15"/><path fill="url(#e)" d="m359.996 10.934 179.446 103.63v57.638L359.911 68.658l.085-57.724Z" opacity=".2"/><path fill="#fff" d="M404.794 66.022c0 8.756-5.101 12.837-11.391 9.181-6.29-3.655-11.391-13.602-11.391-22.358s5.101-12.837 11.391-9.181c6.29 3.655 11.391 13.687 11.391 22.358Z" opacity=".2"/><path fill="url(#f)" d="M36.637 142.703 589 461.499 588.915 892 36.552 573.205l.085-430.502Z" opacity=".15"/><path fill="#EA8C4F" d="m0 248.798 142.723 82.377v39.53L0 288.414v-39.616Z"/><path fill="#fff" d="M73.869 357.444 390.768 540.39v13.517l-316.9-182.946v-13.517ZM73.869 384.648 347.245 542.43v13.517L73.869 398.165v-13.517ZM73.869 411.596l232.659 134.319v13.517L73.868 425.113v-13.517Z" opacity=".15"/><path fill="url(#g)" d="m22.016 425.029 231.979 133.894v119.612L22.015 544.556V425.029Z" opacity=".2"/><path fill="#fff" d="M45.392 469.15 229.683 575.5v13.517l-184.29-106.35V469.15ZM45.392 496.354l147.569 85.182v13.517L45.392 509.785v-13.431Z" opacity=".15"/><path fill="url(#h)" d="m36.637 142.703 551.598 318.456v58.318L36.637 201.106v-58.403Z" opacity=".2"/><path fill="#fff" d="M96.736 206.547c0 8.757-5.1 12.837-11.39 9.182-6.291-3.656-11.392-13.602-11.392-22.359 0-8.756 5.1-12.836 11.391-9.181 6.29 3.656 11.39 13.687 11.39 22.358Z" opacity=".2"/><defs><linearGradient id="a" x1="384.36" x2="245.12" y1="17.876" y2="259.239" gradientUnits="userSpaceOnUse"><stop stop-color="#424C57"/><stop offset=".903" stop-color="#fff" stop-opacity="0"/></linearGradient><linearGradient id="b" x1="303.984" x2="164.727" y1="1.512" y2="242.845" gradientUnits="userSpaceOnUse"><stop stop-color="#414B56"/><stop offset=".903" stop-color="#fff" stop-opacity="0"/></linearGradient><linearGradient id="c" x1="542.816" x2="371.208" y1="116.519" y2="413.807" gradientUnits="userSpaceOnUse"><stop stop-color="#fff"/><stop offset="1" stop-color="#fff" stop-opacity="0"/></linearGradient><linearGradient id="d" x1="476.95" x2="429.254" y1="304.285" y2="386.909" gradientUnits="userSpaceOnUse"><stop stop-color="#fff"/><stop offset="1" stop-color="#fff" stop-opacity="0"/></linearGradient><linearGradient id="e" x1="421.521" x2="476.243" y1="11.828" y2="166.739" gradientUnits="userSpaceOnUse"><stop stop-color="#424C58"/><stop offset="1" stop-color="#fff" stop-opacity="0"/></linearGradient><linearGradient id="f" x1="405.97" x2="315.072" y1="355.856" y2="513.362" gradientUnits="userSpaceOnUse"><stop stop-color="#fff"/><stop offset="1" stop-color="#fff" stop-opacity="0"/></linearGradient><linearGradient id="g" x1="163.887" x2="116.192" y1="506.882" y2="589.507" gradientUnits="userSpaceOnUse"><stop stop-color="#434D58"/><stop offset="1" stop-color="#fff" stop-opacity="0"/></linearGradient><linearGradient id="h" x1="173.501" x2="382.973" y1="95.714" y2="450.519" gradientUnits="userSpaceOnUse"><stop stop-color="#546F94"/><stop offset="1" stop-color="#fff" stop-opacity="0"/></linearGradient></defs></svg>