<svg xmlns="http://www.w3.org/2000/svg" width="20" height="22" fill="none"><path fill="#fff" fill-rule="evenodd" d="M10.964 5.436c-.332 0-.655.04-.964.118a9.12 9.12 0 0 1 1.996-4.76 8.67 8.67 0 0 1 7.637 8.609v6.326a9.165 9.165 0 0 1-8.53-4.687h3.828v-1.64a3.967 3.967 0 0 0-3.966-3.966Z" clip-rule="evenodd"/><path fill="#fff" fill-rule="evenodd" d="M.256 9.95A9.643 9.643 0 0 1 10.52.328a10.104 10.104 0 0 0-2.598 7.378 2.985 2.985 0 0 0-1.014 2.246v.665h5.985-4.37c1.422 3.88 5.15 6.65 9.524 6.65.509 0 1.008-.037 1.497-.11v4.1h-6.65v-3.99H6.906v3.99H.257V9.951Z" clip-rule="evenodd"/></svg>