<svg xmlns="http://www.w3.org/2000/svg" width="64" height="57" fill="none"><g clip-path="url(#a)"><path fill="#FDB300" d="M32 0 13.964 1.872 0 20.278l32 36.589 32-36.59L50.036 1.873 32 0Z"/><path fill="#EB6C00" d="m0 20.278 32 36.59-19.038-36.59H0ZM51.038 20.278 32 56.868l32-36.59H51.038Z"/><path fill="#FDAD00" d="M12.962 20.278 32 56.868l19.039-36.59H12.962Z"/><path fill="#FDD231" d="M13.964 1.872 12.96 20.278 32 0 13.964 1.872ZM51.038 20.278 50.036 1.872 32 0l19.038 20.278Z"/><path fill="#FDAD00" d="M51.038 20.278H64L50.036 1.872l1.002 18.406ZM0 20.278h12.961l1.003-18.406L0 20.278Z"/><path fill="#FEEEB7" d="M32 0 12.962 20.278h38.077L32 0Z"/></g><defs><clipPath id="a"><path fill="#fff" d="M0 0h64v56.95H0z"/></clipPath></defs></svg>