<svg xmlns="http://www.w3.org/2000/svg" width="101" height="97" fill="none"><path fill="url(#a)" d="m43.5 6.577 5.433 7.975c-2.498 1.602-5.48 4.095-8.95 7.476-3.312 3.437-6.552 7.428-9.72 11.973-2.955 4.443-5.018 9.107-6.187 13.994 2.163-.13 4.189.133 6.078.79 3.463 1.203 5.965 3.396 7.506 6.578 1.753 3.08 1.945 6.587.577 10.523-1.587 4.566-4.21 7.8-7.872 9.704-3.606 1.746-7.456 1.907-11.55.485C12.677 73.94 8.772 70.2 7.1 64.856 5.64 59.41 6.033 53.458 8.276 47.003c1.477-4.25 3.91-8.963 7.296-14.138 3.544-5.12 7.718-10.022 12.522-14.704 4.803-4.683 9.939-8.544 15.407-11.584Zm43.45 15.102 5.434 7.975c-2.498 1.602-5.482 4.095-8.95 7.476-3.313 3.437-6.552 7.428-9.72 11.973-2.956 4.443-5.018 9.107-6.188 13.994 2.163-.13 4.189.133 6.078.79 3.464 1.203 5.966 3.396 7.506 6.578 1.753 3.08 1.945 6.587.578 10.523-1.587 4.566-4.211 7.8-7.872 9.704-3.607 1.746-7.457 1.907-11.55.485-6.14-2.134-10.045-5.874-11.716-11.219-1.46-5.447-1.067-11.398 1.176-17.853 1.478-4.25 3.91-8.963 7.296-14.138 3.544-5.12 7.718-10.022 12.522-14.704 4.803-4.683 9.94-8.544 15.407-11.584Z"/><defs><linearGradient id="a" x1="66.942" x2="-251.985" y1="2.117" y2="320.507" gradientUnits="userSpaceOnUse"><stop stop-color="#FCFCFC" stop-opacity="0"/><stop offset="1" stop-color="#fff" stop-opacity=".5"/></linearGradient></defs></svg>